# xmcd CD database file generated by Grip 3.2.0
# 
# Track frame offsets:
#       182
#       20087
#       43310
#       61447
#       78307
#       87390
#       103317
#       139282
#       162267
#       180515
# 
# Disc length: 2736 seconds
# 
# Revision: 13
# Processed by: cddbd v1.5.1PL0 Copyright (c) Steve Scherf et al.
# Submitted via: Grip 3.2.0
# 
DISCID=8b0aae0a
DTITLE=Bud Powell - The Amazing Bud Powell - the scene changes
DYEAR=1958
DGENRE=Jazz
TTITLE0=Cleopatra's Dream
TTITLE1=Duid Deed
TTITLE2=Down With It
TTITLE3=Danceland
TTITLE4=Borderick
TTITLE5=Crossin' The Channel
TTITLE6=Comin' Up
TTITLE7=Gettin' There
TTITLE8=The Scene Changes
TTITLE9=Comin' Up (Alternate Take)
EXTD=DNOTES
EXTT0=
EXTT1=
EXTT2=
EXTT3=
EXTT4=
EXTT5=
EXTT6=
EXTT7=
EXTT8=
EXTT9=
PLAYORDER=
